<!--?xml version="1.0" standalone="no"?-->
              <svg id="sw-js-blob-svg" viewBox="0 0 100 100" xmlns="http://www.w3.org/2000/svg" version="1.1">
                    <defs> 
                        <linearGradient id="sw-gradient" x1="0" x2="1" y1="1" y2="0">
                            <stop id="stop1" stop-color="rgba(255, 255, 255, 1)" offset="0%"></stop>
                            <stop id="stop2" stop-color="rgba(255, 255, 255, 1)" offset="100%"></stop>
                        </linearGradient>
                    </defs>
                <path fill="none" d="M20.5,-30.1C26,-28.3,29.4,-21.7,31.3,-15C33.2,-8.4,33.4,-1.8,32.3,4.5C31.1,10.7,28.5,16.6,24.5,21C20.4,25.5,14.8,28.5,8.6,31.2C2.3,34,-4.6,36.5,-10.1,34.7C-15.6,32.9,-19.7,26.8,-25.8,21.4C-31.9,16.1,-40,11.5,-40,6.3C-39.9,1.1,-31.7,-4.8,-28,-12.7C-24.3,-20.7,-25.2,-30.6,-21.3,-33.1C-17.4,-35.6,-8.7,-30.6,-0.6,-29.7C7.5,-28.8,15,-31.9,20.5,-30.1Z" width="100%" height="100%" transform="translate(50 50)" stroke-width="1" style="transition: all 0.3s ease 0s;" stroke="url(#sw-gradient)"></path>
              </svg>